-
http:// www . torrentkit . com        thanks for supporting with server cost, 
http : // www .torrentkit. com       the fast  and The Hottest Private Tracker on the net

Please Seed back to make the speed Faster!!!

and don't forget to visit      ...... www .torrentkit .com..........
-[img]http://img402.imageshack.us/img402/1278/rabbitholedvd.jpg[/img]

[color=blue][size=5][b]Rabbit Hole 2010 R5 XVID AC3-5.1 HQ Hive-CM8[/b][/size][/color]


[b]Thx Hive

CM8 Doing It Right The First Time :D

Source: Russia DVD-9
Krolichja.nora.2010.D.DVD.ELEKTRI4KA Thx

Video: 720x400 @bitrate 1800 2pass
Audio: English AC3 5.1 @384
Sample: yes included[/b]
 
http://www.imdb.com/title/tt0935075/


General
Complete name                    : Rabbit.Hole.2010.R5.XVID.AC3-5.1.HQ.Hive-CM8.avi
Format                           : AVI
Format/Info                      : Audio Video Interleave
File size                        : 1.38 GiB
Duration                         : 1h 27mn
Overall bit rate                 : 2 256 Kbps
Writing application              : Nandub v1.0rc2
Writing library                  : Nandub build 1853/release

Video
ID                               : 0
Format                           : MPEG-4 Visual
Format profile                   : Advanced Simple@L5
Format settings, BVOP            : Yes
Format settings, QPel            : Yes
Format settings, GMC             : No warppoints
Format settings, Matrix          : Default (H.263)
Muxing mode                      : Packed bitstream
Codec ID                         : XVID
Codec ID/Hint                    : XviD
Duration                         : 1h 27mn
Bit rate                         : 1 799 Kbps
Width                            : 720 pixels
Height                           : 400 pixels
Display aspect ratio             : 16:9
Frame rate                       : 25.000 fps
Color space                      : YUV
Chroma subsampling               : 4:2:0
Bit depth                        : 8 bits
Scan type                        : Progressive
Bits/(Pixel*Frame)               : 0.250
Stream size                      : 1.10 GiB (80%)
Writing library                  : XviD 1.2.1 (UTC 2008-12-04)

Audio
ID                               : 1
Format                           : AC-3
Format/Info                      : Audio Coding 3
Mode extension                   : CM (complete main)
Codec ID                         : 2000
Duration                         : 1h 27mn
Bit rate mode                    : Constant
Bit rate                         : 448 Kbps
Channel(s)                       : 6 channels
Channel positions                : Front: L C R, Side: L R, LFE
Sampling rate                    : 48.0 KHz
Bit depth                        : 16 bits
Stream size                      : 280 MiB (20%)
Alignment                        : Split accross interleaves
Interleave, duration             : 40 ms (1.00 video frame)
Interleave, preload duration     : 500 ms



Nicole Kidman  ...  Becca
Aaron Eckhart  	... Howie
Dianne Wiest  	... Nat
Miles Teller 	... Jason
Tammy Blanchard	... Izzy
Sandra Oh  	... Gaby 



Life for a happy couple is turned upside down after their young son dies in an accident. 



[img]http://img148.imageshack.us/img148/9089/40609667.png[/img]
[img]http://img814.imageshack.us/img814/4630/rraa.png[/img]
[img]http://img14.imageshack.us/img14/6013/rrraaa.png[/img]
[img]http://img62.imageshack.us/img62/9664/rrraaraa.png[/img]
[img]http://img222.imageshack.us/img222/2386/rrraraaraa.png[/img]
[img]http://img690.imageshack.us/img690/8198/rrararraraaraa.png[/img]
[img]http://img821.imageshack.us/img821/5918/rrarraraaraa.png[/img]





Greetz

iNK,LUSi,,MAGNET,CLASSiFiED,THC,LEGi0N,T0XiC,IMAGiNE,ViSiON,WBZ,FLAWL3SS,NOVA
Vik,Rapeseed,D2U,SAFC,goldadvance,MEMORY100,KaN1vE,Unevano,Pinnz,Wayne,Mr Hive
and all P2P groups 
Great Work Guys :D

CM8@hushmail.com